<svg xmlns="http://www.w3.org/2000/svg" viewBox="0 0 512 512"><g fill="#191717"><path d="M0 256v256h512V0H0v256zM313.5 81c29.3 2.1 36.3 2.9 47.1 4.9 28.1 5.3 46.5 14.9 60.9 31.8 12.8 15 18.5 31.2 18.5 52.7 0 20.9-4.2 32.5-16.3 45.3-10.9 11.5-30.1 23-43.1 25.8-3.5.7-2.6 1.8 3.4 3.8 9.2 3.1 21.2 8.7 28 13.2 37.3 24.2 51 66.2 34.6 106.6-9.3 23-31.8 42.8-58.6 51.4-3 1-7.3 2.3-9.5 3-2.2.8-7.4 1.9-11.5 2.5-4.1.7-10 1.6-13 2.1-3 .6-15.8 1.9-28.5 2.9-21.1 1.8-33.2 2-145.7 2H57v-83h30l-.2-91.3-.3-91.2-14.7-.3-14.8-.3V80h121.3c71.3 0 127 .4 135.2 1z"/><path d="M222.7 156.7c-.4.3-.7 14.7-.7 31.9 0 24.1.3 31.3 1.3 31.6 2 .7 37.5.2 46.2-.7 9.6-.9 19.4-4.5 23.7-8.9 4.3-4.2 7.9-12.5 8.5-19.6.4-4.6.1-7.3-1.8-12.5-3.8-10.9-10-16.6-20.9-19.3-9.4-2.3-54.5-4.3-56.3-2.5zM222.5 285.1c-.3.8-.4 16.3-.3 34.4l.3 33 26-.1c23.6-.1 26.7-.3 34-2.4 13.8-3.8 19.2-8.1 23.1-18.5 1.4-3.6 1.9-7.4 1.8-13.7-.1-7.8-.4-9.4-3.5-15.5-4-8-9-11.9-19.6-15.3-6-1.9-9.9-2.2-34-2.7-22.9-.5-27.3-.4-27.8.8z"/></g></svg>