<?xml version="1.0" encoding="UTF-8"?>
<svg id="Layer_1" xmlns="http://www.w3.org/2000/svg" xmlns:xlink="http://www.w3.org/1999/xlink" xmlns:i="http://ns.adobe.com/AdobeIllustrator/10.0/" version="1.1" viewBox="0 0 115 115">
  <defs>
    <style>
      .st0 {
        fill: none;
      }
      .st1 {
        fill: #111;
      }
      .st2 {
        fill: #fff;
      }
      .st3 {
        clip-path: url(#clippath);
      }
    </style>
    <clipPath id="clippath">
      <rect class="st0" x="12.2" y="24" width="89" height="75"/>
    </clipPath>
  </defs>
  <rect id="box" class="st1" width="115" height="115" rx="15" ry="15"/>
  <g class="st3">
    <g>
      <path class="st2" d="M46.6,83.3l-10.1-8.6-7.7,8.6-10.5-8.9v-14.1h-2c-1.8,0-2.7,1.1-3,2.5h-.7c-.1-.6-.4-1.6-.4-2.7,0-1.9.8-6.7,6.1-6.7v-10.9c0-4.2-2.8-4.4-2.8-8.1s3.9-7.9,11.1-10.4l.7.6c-2.4,1.1-4.4,2.6-4.4,5.7,0,4.7,4.7,3.5,4.7,11v2.9l8.5-8.8,8.9,8.7,8.4-8.7,8.1,7.9v26.5l-15,13.6h0ZM36,47.5l-5.1-4.9-3.3,3.4v24.6l6.2,5.2,2.3-2.5v-25.7h0ZM52.4,46.5l-4.1-4-3.1,3.1v24.8l7.1,6.2h0v-30h0Z"/>
      <path class="st2" d="M88.6,83.3c-1.2-1.5-2.8-2.8-4.6-3.3v14.9h-.1c0,0-4-3.6-4-3.6l-8.4,7.7h-.1v-19.4c-2.5.6-5.3,2.1-7.4,4.7l-.6-.4c.5-5.5,3.3-9.6,8-11.2v-14h-1.5c-2.1,0-3.6,1.4-3.8,3h-.9c-.2-.6-.5-1.5-.5-3.3,0-3.5,2.4-6.2,6.3-6.2h.4v-7.7l-2.6-2.3-2,2-1-.9,8.1-8.2,6.8,6.2v7l2.1-2.2v-8.2h1.4v6.8l9.1-9.5,8.2,7.4v31.2l-12.7,9.5h0ZM82.6,47.6l-2.1,2.1v40.4l2.1,1.9v-44.4h0ZM92.1,45.9l-4.3-3.9-3.8,4v26c3.4.4,6,1.6,8.1,3.8h0v-30Z"/>
    </g>
  </g>
</svg>